<?xml version="1.0" encoding="UTF-8"?>
<svg id="Capa_1" data-name="Capa 1" xmlns="http://www.w3.org/2000/svg" viewBox="0 0 880.18 664.74">
  <defs>
    <style>
      .cls-1 {
        isolation: isolate;
        opacity: .1;
      }

      .cls-2 {
        fill: #3f3d56;
      }

      .cls-3 {
        fill: #6a8dc4;
      }

      .cls-4 {
        fill: #ffb9b9;
      }

      .cls-5 {
        fill: #fff;
      }

      .cls-6 {
        fill: #090814;
      }

      .cls-7 {
        fill: #0516ad;
      }
    </style>
  </defs>
  <g id="Group_103" data-name="Group 103">
    <path id="Path_782-1996" data-name="Path 782-1996" class="cls-7" d="M12.01,654.07c.02.94.79,1.69,1.73,1.67,0,0,0,0,0,0h864.71c.92.04,1.7-.68,1.74-1.6s-.68-1.7-1.6-1.74c-.05,0-.09,0-.14,0H13.74c-.94-.02-1.72.73-1.73,1.67,0,0,0,0,0,0Z"/>
    <path id="Path_783-1997" data-name="Path 783-1997" class="cls-3" d="M452.65,489.41c-2.63,15.91-17.66,26.68-33.58,24.05-12.34-2.04-22.01-11.71-24.05-24.05h-73.72v159.76h205.06v-159.76h-73.72Z"/>
    <rect id="Rectangle_253" data-name="Rectangle 253" class="cls-3" x="324.88" y="648.57" width="20.27" height="3.58"/>
    <rect id="Rectangle_254" data-name="Rectangle 254" class="cls-3" x="504.31" y="649.17" width="20.27" height="3.58"/>
    <rect id="Rectangle_255" data-name="Rectangle 255" class="cls-6" x="321.9" y="636.51" width="205.06" height="5.56"/>
    <path id="Path_784-1998" data-name="Path 784-1998" class="cls-6" d="M836.24,493.58H11.43c-6.31,0-11.42-5.12-11.43-11.43V11.43C0,5.12,5.12,0,11.43,0h824.81c6.31,0,11.42,5.12,11.43,11.43v470.72c0,6.31-5.12,11.42-11.43,11.43Z"/>
    <rect id="Rectangle_256" data-name="Rectangle 256" class="cls-5" x="20.27" y="19.08" width="807.14" height="455.43"/>
    <g id="Group_101" data-name="Group 101">
      <path id="Path_1631-1999" data-name="Path 1631-1999" class="cls-3" d="M424.59,245.85l-86.54-64.82-85.36,63.93-1.96-2.61,87.31-65.4,86.13,64.51,85.59-93.66.34-.14,86.34-34.79,1.22,3.02-85.99,34.65-87.08,95.3Z"/>
      <path id="Path_1625-2000" data-name="Path 1625-2000" class="cls-2" d="M684.69,365.83H164.17c-.9,0-1.63-.73-1.63-1.63h0V114.72c0-.9.73-1.63,1.63-1.63.9,0,1.62.73,1.63,1.63v247.86h518.89c.9,0,1.63.73,1.63,1.63,0,.9-.73,1.63-1.63,1.63h0Z"/>
      <path id="Path_1626-2001" data-name="Path 1626-2001" class="cls-7" d="M275.39,347.91h-47.34c-2.67,0-4.83-2.17-4.84-4.83v-65.26c0-2.67,2.17-4.83,4.84-4.83h47.34c2.67,0,4.83,2.17,4.84,4.83v65.27c0,2.67-2.17,4.83-4.83,4.83Z"/>
      <path id="Path_1627-2002" data-name="Path 1627-2002" class="cls-7" d="M361.72,347.91h-47.34c-2.67,0-4.83-2.17-4.84-4.84v-127.17c0-2.67,2.17-4.83,4.84-4.83h47.34c2.67,0,4.83,2.17,4.84,4.83v127.17c0,2.67-2.17,4.83-4.84,4.84h0Z"/>
      <path id="Path_1628-2003" data-name="Path 1628-2003" class="cls-7" d="M448.06,347.91h-47.34c-2.67,0-4.83-2.17-4.84-4.83v-65.26c0-2.67,2.17-4.83,4.84-4.83h47.34c2.67,0,4.83,2.17,4.84,4.83v65.27c0,2.67-2.17,4.83-4.84,4.83Z"/>
      <path id="Path_1629-2004" data-name="Path 1629-2004" class="cls-7" d="M534.4,347.91h-47.34c-2.61.06-4.77-2.01-4.84-4.62v-152.04c.06-2.61,2.23-4.67,4.84-4.62h47.34c2.61-.06,4.77,2.01,4.84,4.62v152.04c-.06,2.61-2.23,4.67-4.84,4.62Z"/>
      <path id="Path_1630-2005" data-name="Path 1630-2005" class="cls-7" d="M620.73,347.91h-47.34c-2.67,0-4.83-2.17-4.84-4.84v-195.58c0-2.67,2.17-4.83,4.84-4.83h47.34c2.67,0,4.83,2.17,4.84,4.83v195.58c0,2.67-2.17,4.83-4.84,4.84h0Z"/>
      <ellipse id="Ellipse_336" data-name="Ellipse 336" class="cls-2" cx="251.51" cy="243.58" rx="10.01" ry="9.38"/>
      <circle id="Ellipse_337" data-name="Ellipse 337" class="cls-2" cx="337.82" cy="180.42" r="10.01"/>
      <ellipse id="Ellipse_338" data-name="Ellipse 338" class="cls-2" cx="424.12" cy="243.58" rx="10.01" ry="9.38"/>
      <circle id="Ellipse_339" data-name="Ellipse 339" class="cls-2" cx="510.43" cy="149.15" r="10.01"/>
      <circle id="Ellipse_340" data-name="Ellipse 340" class="cls-2" cx="596.74" cy="114.12" r="10.01"/>
    </g>
    <g id="Group_102" data-name="Group 102">
      <path id="Path_1647-2006" data-name="Path 1647-2006" class="cls-4" d="M684.58,287.83s-14.82-2.56-36.8-22.49c-17.39-15.77-40.84-12.67-49.89-10.68-.83.18-1.36,1-1.18,1.83.09.44.38.82.77,1.03,3.66,2,9.32,4.92,11.98,5.26,0,0-5.48,5.67.34,8.7,1.42.7,3.12.54,4.38-.42,2.8-2.04,10.58,2.6,21.85,5.01,0,0,43.96,45.49,54.18,37.78l-5.63-26.02Z"/>
      <path id="Path_1648-2007" data-name="Path 1648-2007" class="cls-4" d="M760.26,225.98s4.09,17.38,0,29.64l18.4,2.55,16.35-8.18v-10.73s-7.67-16.35-5.62-35.27l-29.13,21.98Z"/>
      <path id="Path_1649-2008" data-name="Path 1649-2008" class="cls-6" d="M812.36,602.64s13.33,26.07,11.24,43.44,17.38,2.04,15.33-8.18c-.43,12.37,5.72-43.33,8.6-56.38.65-2.92-1.02-5.85-3.87-6.79-6.15-2.02-16.43-4.5-21.6-.71-7.63,5.61-9.71,28.61-9.71,28.61Z"/>
      <path id="Path_1650-2009" data-name="Path 1650-2009" class="cls-6" d="M761.79,631.26s-17.38,22.49-21.98,23-7.67,7.67,0,9.2c15.31,2.66,31.05,1.13,45.55-4.44,2.99-1.17,4.79-4.22,4.37-7.4l-2.93-21.89-25.01,1.53Z"/>
      <path id="Path_1651-2010" data-name="Path 1651-2010" class="cls-6" d="M733.17,392.59l-16.67,2.22c2.29,19.47,2.22,39.14-.2,58.59v70s-.32,6.17,12.48,15.13c13.42,9.33,26.36,19.34,38.76,30l46.38,40.18s18.4-22.49,15.84-35.78c0,0-30.67-9.71-34.76-25.55-2.34-9.07-14.23-16.67-23.97-21.44-12.61-6.12-19.25-20.2-15.94-33.82.57-2.3,1.45-4.51,2.61-6.57,8.18-14.31,19.93-46.51,19.93-46.51l-22.49-42.87-21.98-3.58Z"/>
      <path id="Path_1653-2011" data-name="Path 1653-2011" class="cls-6" d="M757.7,632.83s30.16,5.11,31.18,8.18,0-4.09,0-4.09c0,0,17.38-52.64,13.33-99.14s5.11-77.18,5.11-77.18c0,0,10.73-34.76,4.6-54.69s-70.53-11.24-70.53-11.24c0,0,22.49,52.64,21.98,77.69,0,0,2.55,75.64,7.16,84.33-.05-.04-7.2,74.07-12.82,76.14Z"/>
      <path id="Path_1654-2012" data-name="Path 1654-2012" class="cls-5" d="M761.25,239.27s3.07,18.89,33.73,10.73l-20.4,155.36s-59.29,2.04-58.78-5.11l12.22-94.03,33.22-66.95Z"/>
      <path id="Path_1657-2013" data-name="Path 1657-2013" class="cls-3" d="M762.05,238.76c-4.57,3.57-10.03,5.82-15.79,6.5-5.09.39-10.04,1.86-14.51,4.31-5.26,2.94-11.11,7.22-12.89,12.43-3.58,10.22-26.07,27.09-36.29,23.51l3.58,30.67s29.13-1.53,34.24-12.78l-8.68,109.43h7.67s4.09-29.64,7.16-35.78,9.2-39.87,9.71-48.04,8.18-55.2,14.82-63.33l10.99-23.77v-3.15Z"/>
      <path id="Path_1658-2014" data-name="Path 1658-2014" class="cls-1" d="M788.11,219.08c-.67-4.84.67-7.87,1.28-13.54l-29.13,21.98s.7,2.97,1.23,7.31c1.47.24,2.96.36,4.44.36,10.11,0,17.39-7.9,22.18-16.1Z"/>
      <circle id="Ellipse_347" data-name="Ellipse 347" class="cls-4" cx="765.88" cy="206.06" r="27.6"/>
      <path id="Path_1660-2015" data-name="Path 1660-2015" class="cls-6" d="M738.14,182.56c-.16-4.29.53-8.58,2.05-12.6-.87,1.31-.64,3.06.53,4.1.82-4.38,3.07-8.37,6.4-11.34-1.82.3-2.75,2.54-2.3,4.33.61,1.74,1.7,3.28,3.15,4.43-.15-2.7,1.63-5.22,3.89-6.7,2.35-1.35,4.92-2.28,7.59-2.75-1.88.67-3.08,2.52-2.91,4.51,0,.33.14.64.38.87.26.16.56.24.86.23,2.66.1,5.32.04,7.97-.17,3.26-.37,6.54-.54,9.81-.52,10.26.43,20.56,7.43,22.86,17.43.48,2.43.73,4.89.75,7.36l.5,12.62c.29,3.68.14,7.39-.45,11.03-1.44,6.82-5.84,12.64-12.01,15.88-3.7-5.36-4.03-12.26-5.31-18.64-.2-1.47-.75-2.88-1.6-4.1-.9-1.24-2.48-1.77-3.95-1.33-1.39.55-1.98,2.67-.83,3.61-1.03,1.21-2.94.31-4.1-.77-3.24-3.07-5.46-7.05-6.39-11.41-.46-2.2-.92-4.9-3.08-5.65-.74-.2-1.51-.26-2.28-.15-4.49.31-11.52,2.16-15.86.74-3.99-1.31-5.67-7.21-5.67-10.99Z"/>
      <path id="Path_1662-2016" data-name="Path 1662-2016" class="cls-3" d="M682.36,285.52s-4.09,18.89,3.58,30.67l4.34-.36-2.37-30-5.55-.31Z"/>
      <path id="Path_1664-2017" data-name="Path 1664-2017" class="cls-3" d="M793.23,233.95l32.97,28.37s19.42,19.93,11.24,52.13c0,0-3.58,47.02-7.67,49.07,0,0-14.31,28.62-15.33,55.71,0,0-20.19-40.63-28.89-17.12s-27.86,28.89-27.86,28.89l11.24-139.01s28.38-49.39,24.29-58.03Z"/>
      <path id="Path_1665-2018" data-name="Path 1665-2018" class="cls-4" d="M808.3,353.76s8.18-5.62,21.47,9.71l-32.71,59.29-10.99-16.59s23.26-45.77,22.23-52.41Z"/>
      <path id="Path_1667-2019" data-name="Path 1667-2019" class="cls-3" d="M800.38,356.06s18.09,20.31,25.14,17.05l6.53-15.21-24.52-10.53-7.16,8.69Z"/>
      <path id="Path_1670-2020" data-name="Path 1670-2020" class="cls-1" d="M802.94,293.7s1.02,36.8-3.07,50.6"/>
      <path id="Path_1671-2021" data-name="Path 1671-2021" class="cls-1" d="M720.14,300.86s6.13-2.04,6.13-7.15"/>
    </g>
  </g>
</svg>